<svg role="img" viewBox="0 0 24 24" xmlns="http://www.w3.org/2000/svg" fill="#239120"><title>C Sharp</title><path d="M11.573 0c-.364 0-.734.007-1.106.022C9.26.107 7.908.596.912 1.7365.923 2.867 5.448 4.39 5.448 6.194v1.097h7.328l.176-1.754h-2.98V6.194c0-.97.184-1.444.91-1.444.406 0 .86.27.86.867v4.665h4.586c2.808 0 4.138 1.44 4.138 3.84 2.383-1.473 4.23-4.313 4.23h-3.3v1.563h3.563c3.497 0 5.297-1.938 5.297-5.037 0-2.873-1.718-4.987-4.857-4.987h-4.606V7.75c0-2.092-1.018-3.23-2.917-3.23zM6.69 1.89c.893 0 1.708.426 2.182 1.148.452.69.563 1.53.563 2.567v2.589H3.21v-.75c0-2.11.118-3.554 3.48-3.554zm-.174 14.89c.825 0 1.525-.31 1.84-.876.21-.37.287-.868.287-1.52v-1.96H5.874v.415c0 1.215.522 1.89 1.47 1.89.696 0 1.168-.225 1.432-.51l.147.21c-.437.456-1.145.75-2.075.75z"/></svg>